<?xml version="1.0" standalone="no"?>
<!DOCTYPE svg PUBLIC "-//W3C//DTD SVG 20010904//EN"
 "http://www.w3.org/TR/2001/REC-SVG-20010904/DTD/svg10.dtd">
<svg version="1.0" xmlns="http://www.w3.org/2000/svg"
 width="506.000000pt" height="188.000000pt" viewBox="0 0 506.000000 188.000000"
 preserveAspectRatio="xMidYMid meet">

<g transform="translate(0.000000,188.000000) scale(0.100000,-0.100000)"
fill="#000000" stroke="none">
<path d="M667 1873 l-667 -3 0 -930 0 -930 935 0 935 0 -2 933 -3 932 -265 0
c-146 0 -565 -1 -933 -2z m373 -438 l5 -70 44 -7 c25 -4 73 -17 108 -29 l63
-21 0 -87 c0 -84 -1 -88 -30 -116 -29 -27 -30 -28 -77 -14 -26 7 -79 14 -116
14 l-68 0 5 30 6 30 -20 -30 c-18 -27 -20 -47 -20 -191 0 -131 3 -164 15 -174
12 -10 15 -37 15 -127 0 -105 -2 -115 -17 -110 -10 4 -45 16 -78 28 -71 25
-189 23 -241 -4 -46 -24 -54 -9 -54 97 0 81 2 92 24 115 22 24 25 39 35 176
l10 150 -29 27 -30 28 0 140 0 141 53 24 c100 45 97 46 97 -30 0 -57 2 -66 16
-61 9 3 27 6 40 6 23 0 24 3 24 70 l0 71 108 -3 107 -3 5 -70z m180 17 c33
-16 35 -20 38 -73 l3 -56 -68 23 -68 23 -3 57 -3 57 33 -7 c17 -3 48 -14 68
-24z m-118 -432 c3 -25 7 -82 7 -127 l1 -83 -35 0 -36 0 6 118 c8 137 9 145
32 140 13 -2 20 -17 25 -48z m-157 -526 c100 -44 117 -49 185 -49 63 0 84 5
130 29 l55 28 -35 -36 c-19 -20 -58 -48 -87 -62 -46 -23 -62 -26 -135 -22 -72
3 -95 9 -174 46 -140 65 -250 65 -374 2 -50 -26 -51 -14 -2 31 84 79 117 91
237 85 81 -3 101 -9 200 -52z"/>
<path d="M757 1053 c-3 -5 -6 -60 -8 -123 l-4 -115 29 -3 29 -4 -6 93 c-4 51
-7 107 -7 126 0 22 -5 33 -14 33 -8 0 -17 -3 -19 -7z"/>
<path d="M2653 1364 c-8 -20 21 -49 41 -41 9 4 16 18 16 32 0 20 -5 25 -25 25
-14 0 -28 -7 -32 -16z"/>
<path d="M3514 1365 c-7 -17 12 -45 31 -45 19 0 36 25 29 44 -8 20 -53 21 -60
1z"/>
<path d="M4340 1360 c-11 -11 -20 -29 -20 -40 0 -11 -4 -20 -10 -20 -5 0 -10
-9 -10 -20 0 -11 5 -20 10 -20 6 0 10 -38 10 -95 l0 -95 30 0 30 0 0 95 c0 88
1 95 20 95 13 0 20 7 20 20 0 13 -7 20 -20 20 -12 0 -20 7 -20 16 0 9 9 18 20
21 11 3 20 14 20 24 0 26 -53 26 -80 -1z"/>
<path d="M2180 1250 c0 -60 5 -120 11 -133 24 -52 122 -65 164 -22 24 23 25
30 25 145 l0 120 -30 0 -29 0 -3 -117 c-3 -117 -3 -118 -27 -121 -41 -6 -51
20 -51 135 l0 103 -30 0 -30 0 0 -110z"/>
<path d="M3663 1353 c-16 -3 -23 -11 -23 -29 0 -15 -6 -24 -15 -24 -8 0 -15
-9 -15 -19 0 -10 7 -21 15 -25 11 -4 15 -23 15 -80 0 -86 12 -106 66 -106 27
0 34 4 34 19 0 10 -9 21 -20 24 -18 5 -20 14 -20 76 0 56 3 71 15 71 8 0 15 9
15 20 0 11 -7 20 -15 20 -10 0 -15 10 -15 30 0 17 -3 29 -7 29 -5 -1 -18 -4
-30 -6z"/>
<path d="M2448 1293 c-16 -4 -18 -18 -18 -114 l0 -109 25 0 c24 0 24 2 27 93
l3 92 30 0 30 0 3 -92 3 -93 29 0 30 0 0 93 c0 50 -4 97 -8 103 -19 29 -95 43
-154 27z"/>
<path d="M2650 1185 l0 -115 30 0 30 0 0 115 0 115 -30 0 -30 0 0 -115z"/>
<path d="M2746 1278 c4 -13 21 -63 39 -113 31 -85 34 -90 61 -90 28 0 31 5 66
105 20 58 37 108 37 113 1 4 -12 7 -29 7 -28 0 -30 -4 -51 -72 l-22 -73 -22
70 c-20 67 -23 70 -54 73 -30 3 -32 2 -25 -20z"/>
<path d="M2988 1270 c-29 -29 -30 -34 -26 -92 6 -77 35 -108 103 -108 57 0 75
8 75 32 0 18 -4 19 -41 13 -31 -5 -45 -3 -60 11 -36 33 -24 44 46 44 l65 0 0
39 c0 87 -98 124 -162 61z m102 -30 c15 -28 5 -40 -36 -40 -29 0 -34 3 -34 23
0 13 3 27 7 30 14 14 53 6 63 -13z"/>
<path d="M3213 1293 c-22 -4 -23 -8 -23 -114 l0 -109 30 0 29 0 3 93 3 92 28
3 c19 2 27 9 27 23 0 16 -7 19 -37 18 -21 -1 -48 -4 -60 -6z"/>
<path d="M3349 1279 c-33 -33 -23 -78 28 -112 53 -35 50 -62 -8 -54 -28 4 -39
1 -44 -11 -8 -21 12 -32 60 -32 53 0 85 23 85 60 0 44 -9 59 -52 81 -47 24
-45 44 5 43 24 -1 38 4 42 14 14 36 -81 46 -116 11z"/>
<path d="M3514 1287 c-2 -7 -3 -58 -2 -113 l3 -99 28 -3 27 -3 0 115 0 116
-25 0 c-14 0 -28 -6 -31 -13z"/>
<path d="M3780 1201 c0 -114 7 -126 77 -126 34 0 43 -4 43 -17 0 -25 -35 -40
-74 -33 -25 5 -35 3 -39 -10 -9 -21 15 -30 77 -29 41 0 53 5 73 28 22 25 23
35 23 157 l0 129 -30 0 -29 0 -3 -92 c-3 -83 -5 -93 -22 -96 -33 -7 -46 25
-46 110 0 77 0 78 -25 78 -25 0 -25 0 -25 -99z"/>
<path d="M4109 1271 c-25 -26 -29 -37 -29 -86 0 -49 4 -60 29 -86 47 -47 119
-38 149 18 15 28 15 105 1 136 -24 54 -105 63 -150 18z m89 -23 c18 -18 15
-113 -4 -129 -26 -22 -49 1 -52 54 -5 70 23 108 56 75z"/>
<path d="M3272 948 c-17 -17 -15 -57 3 -64 8 -4 26 -3 40 0 41 11 28 76 -15
76 -9 0 -21 -5 -28 -12z"/>
<path d="M4020 725 l0 -215 35 0 34 0 3 132 3 131 28 10 c21 7 34 5 52 -7 24
-16 25 -20 25 -141 l0 -125 41 0 41 0 -4 134 c-3 115 -6 137 -22 155 -26 28
-82 42 -128 32 l-38 -9 0 59 0 59 -35 0 -35 0 0 -215z"/>
<path d="M2180 715 l0 -205 35 0 34 0 3 147 3 147 85 -147 85 -146 38 -1 37 0
0 205 0 205 -40 0 -39 0 -3 -132 -3 -132 -78 132 -77 132 -40 0 -40 0 0 -205z"/>
<path d="M2913 908 c-29 -8 -33 -13 -33 -43 0 -28 -4 -35 -20 -35 -14 0 -20
-7 -20 -21 0 -12 8 -23 20 -26 19 -5 20 -14 20 -118 0 -136 9 -154 83 -162 45
-5 47 -5 47 21 0 16 -6 26 -14 26 -36 0 -46 29 -46 130 l0 99 28 3 c19 2 28 9
30 25 3 17 -2 22 -25 25 -25 3 -29 8 -33 44 -5 40 -5 40 -37 32z"/>
<path d="M3113 908 c-28 -7 -33 -13 -33 -39 0 -22 -5 -32 -20 -36 -13 -3 -20
-14 -20 -29 0 -17 6 -24 20 -24 19 0 20 -7 20 -118 0 -138 7 -151 85 -159 43
-5 45 -5 45 21 0 18 -5 26 -18 26 -35 0 -42 21 -42 127 l0 103 25 0 c20 0 25
5 25 25 0 20 -5 25 -24 25 -22 0 -25 5 -28 43 l-3 43 -32 -8z"/>
<path d="M2623 826 c-89 -40 -108 -205 -35 -287 35 -40 101 -50 155 -24 88 42
105 215 28 289 -36 34 -100 44 -148 22z m103 -61 c20 -31 24 -149 6 -182 -20
-37 -47 -46 -74 -24 -21 18 -23 27 -23 109 0 97 10 122 51 122 14 0 30 -10 40
-25z"/>
<path d="M3435 827 l-40 -13 -3 -152 -3 -152 40 0 40 0 3 138 3 137 33 3 c57
6 62 -6 62 -149 l0 -129 40 0 40 0 0 125 c0 130 -8 162 -42 184 -30 19 -126
23 -173 8z"/>
<path d="M3773 821 c-56 -26 -77 -67 -77 -151 -1 -113 45 -166 141 -164 54 2
55 1 48 -25 -3 -14 -13 -32 -20 -40 -16 -16 -66 -20 -107 -8 -22 6 -29 3 -39
-14 -14 -27 -2 -36 58 -45 61 -9 109 3 146 36 l32 28 3 191 3 190 -38 10 c-56
16 -103 13 -150 -8z m115 -148 c3 -112 3 -112 -22 -119 -57 -14 -96 32 -96
115 0 80 32 124 85 119 l30 -3 3 -112z"/>
<path d="M4377 828 c-32 -9 -37 -13 -31 -32 9 -28 8 -28 38 -16 60 23 116 4
116 -40 0 -15 -10 -18 -61 -22 -54 -4 -66 -9 -90 -36 -47 -52 -35 -138 22
-168 28 -14 135 -19 177 -8 21 6 22 10 22 136 0 73 -5 138 -11 150 -22 42
-101 57 -182 36z m121 -215 l-3 -68 -31 -3 c-25 -2 -37 3 -53 24 -26 34 -27
54 0 88 15 19 30 26 55 26 l35 0 -3 -67z"/>
<path d="M4675 827 l-40 -13 -3 -152 -3 -152 41 0 40 0 0 140 0 140 34 0 c56
0 66 -24 66 -162 l0 -118 35 0 35 0 0 134 c0 142 1 146 50 146 42 0 50 -24 50
-156 l0 -124 35 0 35 0 0 138 c0 136 0 139 -26 163 -22 21 -34 24 -85 22 -103
-5 -113 -4 -169 1 -32 3 -72 0 -95 -7z"/>
<path d="M3260 670 l0 -160 40 0 40 0 0 160 0 160 -40 0 -40 0 0 -160z"/>
<path d="M2624 125 c0 -66 1 -92 3 -57 2 34 2 88 0 120 -2 31 -3 3 -3 -63z"/>
<path d="M3664 125 c0 -66 1 -92 3 -57 2 34 2 88 0 120 -2 31 -3 3 -3 -63z"/>
<path d="M2814 218 c-59 -28 -58 -169 2 -184 30 -8 77 -1 81 12 2 6 -11 8 -34
6 -47 -6 -63 15 -63 79 0 57 25 82 71 72 34 -7 40 12 7 21 -30 8 -39 7 -64 -6z"/>
<path d="M2180 142 c0 -91 13 -112 73 -112 56 0 67 19 67 111 0 46 -4 79 -10
79 -6 0 -10 -31 -10 -73 0 -81 -9 -97 -52 -97 -36 0 -48 28 -48 111 0 33 -4
59 -10 59 -6 0 -10 -33 -10 -78z"/>
<path d="M2360 125 c0 -57 4 -95 10 -95 6 0 10 21 10 48 l1 47 44 -47 c39 -44
66 -60 65 -40 -1 4 -19 27 -40 52 l-40 45 42 42 c55 56 27 56 -29 1 l-43 -42
0 42 c0 23 -4 42 -10 42 -6 0 -10 -38 -10 -95z"/>
<path d="M2940 125 c0 -57 4 -95 10 -95 6 0 10 20 10 45 l0 45 50 0 50 0 0
-45 c0 -25 5 -45 10 -45 6 0 10 38 10 95 0 53 -4 95 -9 95 -6 0 -11 -17 -13
-37 -3 -38 -3 -38 -48 -38 -45 0 -45 0 -48 38 -2 20 -7 37 -13 37 -5 0 -9 -42
-9 -95z"/>
<path d="M3130 125 c0 -57 4 -95 10 -95 6 0 10 38 10 95 0 57 -4 95 -10 95 -6
0 -10 -38 -10 -95z"/>
<path d="M3200 125 c0 -57 4 -95 10 -95 6 0 10 33 10 78 l1 77 40 -77 c29 -58
44 -78 59 -78 19 0 20 7 20 95 0 114 -18 128 -22 18 l-3 -78 -43 78 c-60 105
-72 102 -72 -18z"/>
<path d="M3425 208 c-2 -7 -18 -50 -34 -95 -23 -62 -27 -83 -17 -83 8 0 17 11
20 25 6 22 12 25 50 25 38 0 45 -3 50 -25 4 -14 13 -25 21 -25 14 0 3 37 -47
163 -11 28 -35 36 -43 15z m38 -65 l17 -43 -36 0 c-38 0 -38 0 -12 69 10 28
10 28 31 -26z"/>
<path d="M3830 125 c0 -114 18 -128 22 -17 l3 77 26 -75 c35 -102 50 -102 82
-3 l25 78 1 -77 c1 -62 4 -78 16 -78 17 0 19 30 9 129 -10 86 -30 79 -64 -24
l-27 -80 -27 83 c-22 65 -32 82 -47 82 -17 0 -19 -8 -19 -95z"/>
<path d="M4081 134 c-17 -47 -31 -90 -31 -95 0 -20 20 -7 26 16 5 22 12 25 50
25 38 0 44 -3 50 -25 3 -14 13 -25 21 -25 16 0 16 -1 -25 110 -38 103 -51 102
-91 -6z m73 -11 c7 -21 4 -23 -28 -23 l-35 0 16 46 c16 46 16 46 28 23 7 -13
16 -34 19 -46z"/>
<path d="M4240 125 l0 -95 55 0 c30 0 55 5 55 10 0 6 -20 10 -45 10 l-45 0 0
85 c0 50 -4 85 -10 85 -6 0 -10 -38 -10 -95z"/>
<path d="M4402 133 c-35 -97 -36 -103 -22 -103 5 0 12 11 16 25 5 22 12 25 50
25 38 0 44 -3 50 -25 3 -14 13 -25 21 -25 16 0 16 -1 -25 110 -38 103 -51 102
-90 -7z m72 -10 c7 -21 4 -23 -28 -23 l-35 0 16 46 c16 46 16 46 28 23 7 -13
16 -34 19 -46z"/>
<path d="M4550 171 c22 -35 30 -61 30 -95 0 -34 4 -46 15 -46 11 0 15 11 15
42 0 28 10 59 30 95 23 41 27 53 15 53 -8 0 -15 -3 -15 -7 0 -5 -9 -23 -21
-42 l-21 -34 -24 41 c-14 23 -32 42 -39 42 -11 0 -6 -14 15 -49z"/>
<path d="M4689 199 c-16 -31 3 -65 45 -80 64 -23 54 -69 -16 -69 -24 0 -37 -4
-33 -10 10 -16 82 -12 100 6 28 28 15 66 -29 89 -22 11 -42 27 -44 34 -7 20
24 39 53 33 15 -2 25 0 25 7 0 6 -18 11 -45 11 -35 0 -47 -4 -56 -21z"/>
<path d="M4840 125 c0 -57 4 -95 10 -95 6 0 10 38 10 95 0 57 -4 95 -10 95 -6
0 -10 -38 -10 -95z"/>
<path d="M4926 137 c-16 -45 -31 -88 -34 -94 -2 -7 1 -13 7 -13 6 0 16 11 21
25 8 21 16 25 50 25 34 0 42 -4 50 -25 5 -14 14 -25 20 -25 14 0 14 2 -22 101
-22 60 -37 89 -48 89 -10 0 -25 -28 -44 -83z m59 17 c21 -50 19 -54 -15 -54
-16 0 -30 3 -30 6 0 11 23 84 26 84 2 0 11 -16 19 -36z"/>
</g>
</svg>
