<?xml version="1.0" standalone="no"?>
<!DOCTYPE svg PUBLIC "-//W3C//DTD SVG 20010904//EN"
 "http://www.w3.org/TR/2001/REC-SVG-20010904/DTD/svg10.dtd">
<svg version="1.0" xmlns="http://www.w3.org/2000/svg"
 width="186.000000pt" height="186.000000pt" viewBox="0 0 186.000000 186.000000"
 preserveAspectRatio="xMidYMid meet">

<g transform="translate(0.000000,186.000000) scale(0.100000,-0.100000)"
fill="#000000" stroke="none">
<path d="M0 935 l0 -925 930 0 930 0 0 925 0 925 -930 0 -930 0 0 -925z m1040
500 l5 -70 44 -7 c25 -4 73 -17 108 -29 l63 -21 0 -87 c0 -84 -1 -88 -30 -116
-29 -27 -30 -28 -77 -14 -26 7 -79 14 -116 14 l-68 0 5 30 6 30 -20 -30 c-18
-27 -20 -47 -20 -191 0 -131 3 -164 15 -174 12 -10 15 -37 15 -127 0 -105 -2
-115 -17 -110 -10 4 -45 16 -78 28 -71 25 -189 23 -241 -4 -46 -24 -54 -9 -54
97 0 81 2 92 24 115 22 24 25 39 35 176 l10 150 -29 27 -30 28 0 140 0 141 53
24 c100 45 97 46 97 -30 0 -57 2 -66 16 -61 9 3 27 6 40 6 23 0 24 3 24 70 l0
71 108 -3 107 -3 5 -70z m180 17 c33 -16 35 -20 38 -73 l3 -56 -68 23 -68 23
-3 57 -3 57 33 -7 c17 -3 48 -14 68 -24z m-118 -432 c3 -25 7 -82 7 -127 l1
-83 -35 0 -36 0 6 118 c8 137 9 145 32 140 13 -2 20 -17 25 -48z m-157 -526
c100 -44 117 -49 185 -49 63 0 84 5 130 29 l55 28 -35 -36 c-19 -20 -58 -48
-87 -62 -46 -23 -62 -26 -135 -22 -72 3 -95 9 -174 46 -140 65 -250 65 -374 2
-50 -26 -51 -14 -2 31 84 79 117 91 237 85 81 -3 101 -9 200 -52z"/>
<path d="M757 1053 c-3 -5 -6 -60 -8 -123 l-4 -115 29 -3 29 -4 -6 93 c-4 51
-7 107 -7 126 0 22 -5 33 -14 33 -8 0 -17 -3 -19 -7z"/>
</g>
</svg>
